<svg id="svg" version="1.1" width="400" height="97.16941275876637" viewBox="0 0 400 97.16941275876637" xmlns="http://www.w3.org/2000/svg" xmlns:xlink="http://www.w3.org/1999/xlink" ><g id="svgg"><path id="path0" d="M0.000 48.583 L 0.000 97.167 0.393 97.167 L 0.786 97.167 0.869 72.875 C 0.914 59.515,0.914 37.652,0.869 24.292 L 0.785 0.000 0.393 0.000 L 0.000 0.000 0.000 48.583 M5.167 48.583 L 5.167 97.167 7.307 97.167 L 9.448 97.167 9.543 72.875 C 9.595 59.515,9.595 37.652,9.543 24.292 L 9.448 -0.000 7.307 -0.000 L 5.167 0.000 5.167 48.583 M15.944 9.375 C 15.883 14.531,15.834 36.394,15.833 57.958 L 15.833 97.167 20.417 97.167 L 25.000 97.167 25.000 48.583 L 25.000 0.000 20.527 -0.000 L 16.055 -0.000 15.944 9.375 M29.692 47.239 C 29.727 73.220,29.817 94.539,29.893 94.614 C 30.067 94.787,30.731 93.984,31.261 92.961 C 32.226 91.097,32.167 94.255,32.167 45.132 L 32.167 0.000 30.897 0.000 L 29.628 0.000 29.692 47.239 M38.111 10.527 C 37.980 22.989,37.961 89.905,38.088 90.033 C 38.173 90.118,41.238 89.446,44.500 88.627 L 46.083 88.229 46.082 81.531 C 46.082 77.847,46.063 57.996,46.041 37.417 L 46.000 0.000 42.111 -0.000 L 38.221 -0.000 38.111 10.527 M51.833 44.083 L 51.833 88.167 56.125 88.167 L 60.417 88.167 60.404 74.458 C 60.391 59.758,60.449 60.999,59.499 54.833 C 59.044 51.877,58.890 47.961,59.153 46.033 C 59.349 44.601,59.337 44.462,58.812 41.983 C 57.947 37.902,57.987 34.484,58.947 30.583 C 60.341 24.921,60.545 22.112,60.471 9.551 C 60.418 0.349,60.411 0.183,60.083 0.095 C 59.900 0.045,57.969 0.004,55.792 0.002 L 51.833 0.000 51.833 44.083 M66.634 3.125 C 66.662 4.844,66.737 6.835,66.801 7.550 L 66.917 8.849 67.959 7.835 C 69.603 6.234,70.181 4.756,70.421 1.542 L 70.535 0.000 68.559 -0.000 L 66.583 -0.000 66.634 3.125 M76.397 1.708 L 76.073 3.417 80.478 3.461 C 82.901 3.486,84.911 3.478,84.944 3.445 C 84.978 3.411,84.955 2.623,84.894 1.692 L 84.783 0.000 80.752 0.000 L 76.720 -0.000 76.397 1.708 M90.670 1.125 C 90.678 3.740,91.068 5.094,92.136 6.208 C 93.078 7.192,93.167 7.092,93.168 5.042 C 93.168 4.056,93.217 2.519,93.276 1.625 L 93.384 0.000 92.025 0.000 L 90.667 0.000 90.670 1.125 M98.538 3.707 L 98.583 7.413 101.500 8.674 C 103.104 9.368,104.743 10.065,105.143 10.223 L 105.869 10.511 105.755 5.547 C 105.692 2.817,105.604 0.452,105.559 0.292 C 105.485 0.026,105.169 -0.000,101.986 -0.000 L 98.494 0.000 98.538 3.707 M111.913 3.458 C 111.633 11.287,111.935 15.099,113.131 18.833 C 113.867 21.132,114.049 22.318,114.038 24.750 C 114.028 26.882,113.960 27.602,113.392 31.583 C 112.748 36.101,113.064 40.202,114.259 42.818 C 114.703 43.791,116.004 45.885,116.103 45.786 C 116.321 45.568,116.492 27.279,116.395 14.708 L 116.280 0.000 114.159 0.000 L 112.037 0.000 111.913 3.458 M120.041 41.623 L 120.083 83.246 123.667 84.033 C 125.638 84.466,127.419 84.862,127.625 84.913 L 128.000 85.006 128.000 42.503 L 128.000 0.000 124.000 -0.000 L 119.999 -0.000 120.041 41.623 M132.620 23.958 C 132.567 37.135,132.574 56.467,132.637 66.917 L 132.750 85.917 134.250 86.111 C 135.075 86.218,136.062 86.347,136.442 86.397 L 137.135 86.489 137.155 61.120 C 137.167 47.166,137.125 27.706,137.063 17.875 L 136.950 -0.000 134.834 -0.000 L 132.718 0.000 132.620 23.958 M141.923 1.208 C 141.627 4.180,141.588 11.308,141.667 48.152 L 141.750 87.387 146.246 88.527 C 148.718 89.154,150.800 89.667,150.871 89.667 C 150.942 89.667,151.000 69.492,151.000 44.833 L 151.000 0.000 146.522 0.000 L 142.043 0.000 141.923 1.208 M155.708 45.865 L 155.750 91.730 157.083 92.687 L 158.417 93.644 158.519 85.530 C 158.666 73.831,158.684 40.250,158.556 18.625 L 158.445 0.000 157.056 0.000 L 155.666 0.000 155.708 45.865 M165.833 68.500 L 165.833 87.333 169.250 87.333 L 172.667 87.333 172.667 79.854 L 172.667 72.374 179.375 72.297 C 183.065 72.255,186.140 72.250,186.208 72.287 C 186.277 72.323,186.333 75.724,186.333 79.843 L 186.333 87.333 189.750 87.333 L 193.167 87.333 193.167 68.500 L 193.167 49.667 189.750 49.667 L 186.333 49.667 186.333 57.167 L 186.333 64.667 179.500 64.667 L 172.667 64.667 172.667 57.167 L 172.667 49.667 169.250 49.667 L 165.833 49.667 165.833 68.500 M207.167 53.237 L 207.167 56.807 207.625 56.896 C 207.877 56.945,210.915 57.035,214.375 57.095 L 220.667 57.205 220.667 53.436 L 220.667 49.667 213.917 49.667 L 207.167 49.667 207.167 53.237 M243.000 53.417 L 243.000 57.167 239.583 57.167 L 236.167 57.167 236.167 68.503 L 236.167 79.840 239.542 79.795 L 242.917 79.750 242.960 68.542 L 243.002 57.333 249.748 57.333 L 256.494 57.333 256.538 61.042 L 256.583 64.750 260.000 64.750 L 263.417 64.750 263.417 61.000 L 263.417 57.250 260.042 57.205 L 256.667 57.160 256.667 53.413 L 256.667 49.667 249.833 49.667 L 243.000 49.667 243.000 53.417 M270.500 68.500 L 270.500 87.333 273.917 87.333 L 277.333 87.333 277.333 79.833 L 277.333 72.333 279.875 72.332 C 281.273 72.331,282.810 72.283,283.292 72.225 L 284.167 72.120 284.167 70.602 C 284.168 69.767,284.217 68.127,284.276 66.958 L 284.385 64.833 287.692 64.833 L 291.000 64.833 291.000 61.087 L 291.000 57.340 294.375 57.295 L 297.750 57.250 297.795 53.458 L 297.840 49.667 294.420 49.667 L 291.000 49.667 291.000 53.417 L 291.000 57.167 287.583 57.167 L 284.167 57.167 284.167 61.026 L 284.167 64.885 282.042 64.776 C 280.873 64.717,279.335 64.668,278.625 64.667 L 277.333 64.667 277.333 57.167 L 277.333 49.667 273.917 49.667 L 270.500 49.667 270.500 68.500 M306.333 68.500 L 306.333 87.333 316.583 87.333 L 326.833 87.333 326.833 83.585 L 326.833 79.837 320.044 79.794 C 313.447 79.751,313.253 79.741,313.192 79.423 C 313.157 79.243,313.183 77.574,313.249 75.714 L 313.370 72.333 318.326 72.333 C 321.051 72.333,324.081 72.284,325.057 72.225 L 326.833 72.116 326.833 68.391 L 326.833 64.667 320.109 64.667 L 313.385 64.667 313.276 62.140 C 313.216 60.751,313.167 59.101,313.167 58.474 L 313.167 57.333 320.000 57.333 L 326.833 57.333 326.833 53.500 L 326.833 49.667 316.583 49.667 L 306.333 49.667 306.333 68.500 M335.167 68.500 L 335.167 87.333 338.500 87.333 L 341.833 87.333 341.836 80.208 C 341.837 76.290,341.883 72.915,341.938 72.708 C 342.038 72.335,342.054 72.333,345.436 72.333 L 348.833 72.333 348.833 76.083 L 348.833 79.833 352.167 79.833 L 355.500 79.833 355.500 83.583 L 355.500 87.333 358.917 87.333 L 362.333 87.333 362.333 83.583 L 362.333 79.833 358.917 79.833 L 355.500 79.833 355.500 72.333 L 355.500 64.833 358.917 64.833 L 362.333 64.833 362.333 61.000 L 362.333 57.167 358.917 57.167 L 355.500 57.167 355.500 53.417 L 355.500 49.667 345.333 49.667 L 335.167 49.667 335.167 68.500 M376.372 53.458 L 376.417 57.250 386.583 57.250 L 396.750 57.250 396.795 53.458 L 396.840 49.667 386.583 49.667 L 376.327 49.667 376.372 53.458 M114.721 55.968 C 111.747 61.380,111.839 60.913,111.836 70.679 L 111.833 78.442 112.208 78.775 C 112.657 79.173,116.106 81.667,116.209 81.667 C 116.345 81.667,116.519 53.913,116.384 53.550 C 116.270 53.242,116.015 53.614,114.721 55.968 M200.333 72.250 L 200.333 87.333 203.667 87.333 L 207.000 87.333 207.000 79.833 L 207.000 72.333 212.057 72.333 C 214.839 72.333,217.914 72.284,218.891 72.225 L 220.667 72.116 220.667 79.725 L 220.667 87.333 224.083 87.333 L 227.500 87.333 227.500 72.250 L 227.500 57.167 224.167 57.167 L 220.833 57.167 220.833 61.000 L 220.833 64.833 216.943 64.833 C 214.804 64.833,211.691 64.784,210.027 64.724 L 207.000 64.614 207.000 60.890 L 207.000 57.167 203.667 57.167 L 200.333 57.167 200.333 72.250 M369.539 60.958 L 369.583 64.750 372.958 64.795 L 376.333 64.840 376.333 61.003 L 376.333 57.167 372.914 57.167 L 369.494 57.167 369.539 60.958 M355.500 61.000 L 355.500 64.667 348.772 64.667 L 342.044 64.667 341.940 64.042 C 341.883 63.698,341.836 62.048,341.835 60.375 L 341.833 57.333 348.667 57.333 L 355.500 57.333 355.500 61.000 M376.444 64.778 C 376.383 64.839,376.333 66.564,376.333 68.611 L 376.333 72.333 381.292 72.333 C 384.019 72.332,387.094 72.283,388.125 72.224 L 390.000 72.116 390.000 68.391 L 390.000 64.667 383.278 64.667 C 379.581 64.667,376.506 64.717,376.444 64.778 M66.602 76.765 C 66.426 83.717,66.611 88.221,67.068 88.098 C 67.260 88.047,67.994 87.874,68.699 87.714 L 69.982 87.424 70.099 86.337 C 70.431 83.250,70.257 78.643,69.765 77.500 C 69.369 76.581,66.882 72.167,66.760 72.167 C 66.737 72.167,66.667 74.236,66.602 76.765 M256.561 75.292 C 256.623 76.919,256.730 78.550,256.798 78.917 L 256.922 79.583 258.086 79.713 C 258.726 79.784,260.188 79.821,261.333 79.796 L 263.417 79.750 263.462 76.042 L 263.506 72.333 259.977 72.333 L 256.448 72.333 256.561 75.292 M284.167 73.792 C 284.168 74.594,284.216 76.300,284.274 77.583 L 284.381 79.917 286.066 79.863 C 286.992 79.834,288.387 79.759,289.167 79.696 L 290.583 79.583 290.772 78.083 C 290.876 77.258,291.017 75.627,291.086 74.458 L 291.209 72.333 287.688 72.333 L 284.167 72.333 284.167 73.792 M389.896 74.375 C 390.030 76.797,390.318 79.371,390.473 79.531 C 390.597 79.661,396.514 79.997,396.708 79.885 C 396.777 79.846,396.833 78.131,396.833 76.073 L 396.833 72.333 393.308 72.333 L 389.783 72.333 389.896 74.375 M297.000 79.618 C 293.881 79.848,291.337 80.230,291.267 80.479 C 291.226 80.628,291.148 81.575,291.094 82.583 C 291.040 83.592,290.951 85.073,290.897 85.875 L 290.798 87.333 294.316 87.333 L 297.833 87.333 297.833 83.510 C 297.833 81.407,297.777 79.661,297.708 79.631 C 297.640 79.600,297.321 79.595,297.000 79.618 M245.875 79.780 L 243.000 79.841 243.000 83.587 L 243.000 87.333 249.833 87.333 L 256.667 87.333 256.662 85.375 C 256.658 83.444,256.429 80.374,256.279 80.224 C 255.947 79.891,250.843 79.674,245.875 79.780 M374.125 79.781 L 369.500 79.839 369.500 83.586 L 369.500 87.333 379.827 87.333 L 390.154 87.333 390.062 85.375 C 389.949 82.957,389.735 80.346,389.643 80.254 C 389.303 79.914,381.797 79.685,374.125 79.781 " stroke="none" fill="#181717" fill-rule="evenodd"></path><path id="path1" d="M0.917 48.583 L 0.917 97.167 2.958 97.167 L 5.000 97.167 5.000 48.583 L 5.000 0.000 2.958 0.000 L 0.917 0.000 0.917 48.583 M9.583 48.583 L 9.583 97.167 12.690 97.167 L 15.796 97.167 15.796 48.583 L 15.796 0.000 12.690 -0.000 L 9.583 -0.000 9.583 48.583 M25.000 48.583 L 25.000 97.167 212.500 97.167 L 400.000 97.167 400.000 48.583 L 400.000 0.000 279.292 -0.000 L 158.583 -0.000 158.642 46.833 C 158.674 72.594,158.637 93.667,158.559 93.667 C 158.481 93.668,157.798 93.244,157.042 92.725 L 155.667 91.783 155.667 45.891 L 155.667 0.000 153.375 -0.000 L 151.083 -0.000 151.142 44.669 C 151.174 69.237,151.162 89.438,151.115 89.561 C 151.048 89.734,149.994 89.521,146.375 88.604 L 141.720 87.423 141.610 77.837 C 141.309 51.562,141.511 4.011,141.938 0.792 L 142.043 0.000 139.557 0.000 L 137.071 0.000 137.139 43.272 L 137.208 86.545 136.646 86.447 C 136.336 86.393,135.324 86.259,134.395 86.151 L 132.707 85.953 132.584 68.268 C 132.516 58.542,132.489 39.202,132.523 25.292 L 132.585 0.000 130.376 0.000 L 128.167 0.000 128.167 42.407 C 128.167 65.731,128.109 84.849,128.038 84.893 C 127.829 85.022,120.095 83.309,119.961 83.104 C 119.894 83.001,119.837 64.260,119.836 41.458 L 119.833 0.000 118.186 -0.000 L 116.539 -0.000 116.441 22.125 C 116.387 34.294,116.282 44.625,116.208 45.083 L 116.072 45.917 115.218 44.627 C 112.988 41.261,112.535 37.824,113.421 30.996 C 114.240 24.678,114.173 22.670,113.007 18.627 C 111.814 14.493,111.497 9.710,111.916 2.172 L 112.037 0.000 108.843 0.000 L 105.649 0.000 105.767 5.250 C 105.837 8.360,105.823 10.495,105.734 10.487 C 105.651 10.480,103.971 9.783,102.000 8.937 L 98.417 7.400 98.451 3.700 L 98.485 0.000 95.930 -0.000 L 93.376 -0.000 93.254 3.500 C 93.187 5.425,93.078 7.000,93.013 7.000 C 91.923 7.000,90.823 4.708,90.653 2.083 C 90.582 0.983,90.518 0.065,90.512 0.042 C 90.505 0.019,89.218 -0.000,87.651 -0.000 L 84.801 -0.000 84.921 1.750 L 85.040 3.500 80.520 3.500 C 78.034 3.500,76.000 3.471,76.000 3.435 C 76.000 3.399,76.150 2.641,76.333 1.750 C 76.517 0.859,76.667 0.101,76.667 0.065 C 76.667 0.029,75.290 0.000,73.608 0.000 L 70.549 0.000 70.436 1.617 C 70.206 4.882,69.502 6.590,67.748 8.133 C 66.683 9.071,66.714 9.176,66.571 4.204 L 66.451 0.000 63.419 0.000 L 60.387 0.000 60.402 11.042 C 60.419 24.068,60.337 25.139,58.872 31.083 C 58.003 34.606,57.988 37.901,58.820 41.833 C 59.359 44.378,59.364 44.442,59.158 46.133 C 58.815 48.943,59.182 53.537,60.192 59.083 C 60.310 59.732,60.400 65.016,60.447 74.125 L 60.520 88.167 56.074 88.167 L 51.628 88.167 51.692 44.083 L 51.755 -0.000 48.850 0.000 L 45.945 0.000 46.060 44.134 L 46.174 88.267 42.212 89.219 C 40.033 89.743,38.194 90.170,38.125 90.169 C 38.056 90.168,38.000 69.879,38.000 45.083 L 38.000 0.000 35.082 0.000 L 32.164 0.000 32.168 45.309 C 32.172 89.373,32.164 90.646,31.856 91.637 C 31.490 92.812,30.878 93.916,30.286 94.469 L 29.873 94.854 29.731 88.552 C 29.654 85.086,29.605 63.744,29.623 41.125 L 29.655 0.000 27.328 0.000 L 25.000 0.000 25.000 48.583 M172.628 11.788 L 172.673 15.493 176.045 15.538 L 179.417 15.583 179.461 19.375 L 179.506 23.167 182.923 23.167 L 186.340 23.167 186.295 26.875 L 186.250 30.583 182.875 30.628 L 179.500 30.674 179.499 29.295 C 179.499 28.537,179.450 26.846,179.390 25.538 L 179.281 23.160 176.016 23.205 L 172.750 23.250 172.707 34.542 L 172.664 45.833 169.249 45.833 L 165.833 45.833 165.833 26.913 L 165.833 7.993 169.208 8.038 L 172.583 8.083 172.628 11.788 M199.833 26.917 L 199.833 45.833 197.942 45.833 C 196.902 45.833,195.365 45.785,194.526 45.725 L 193.000 45.617 193.000 41.892 L 193.000 38.167 189.693 38.167 L 186.385 38.167 186.277 35.792 C 186.217 34.485,186.168 32.846,186.167 32.149 L 186.167 30.881 187.191 30.774 C 187.755 30.715,189.292 30.667,190.608 30.667 L 193.000 30.667 193.000 19.444 C 193.000 13.272,193.050 8.172,193.111 8.111 C 193.172 8.050,194.710 8.000,196.528 8.000 L 199.833 8.000 199.833 26.917 M214.293 23.125 L 214.335 38.167 221.083 38.167 L 227.832 38.167 227.874 23.125 L 227.917 8.083 231.292 8.038 L 234.667 7.993 234.667 23.080 L 234.667 38.167 231.336 38.167 L 228.006 38.167 227.961 41.958 L 227.917 45.750 221.125 45.794 L 214.333 45.837 214.333 42.002 L 214.333 38.167 210.833 38.167 L 207.333 38.167 207.333 23.194 C 207.333 14.960,207.385 8.171,207.448 8.108 C 207.511 8.045,209.067 8.014,210.906 8.038 L 214.250 8.083 214.293 23.125 M270.500 11.833 L 270.500 15.667 260.333 15.667 L 250.167 15.667 250.167 19.417 L 250.167 23.167 257.000 23.167 L 263.833 23.167 263.833 26.917 L 263.833 30.667 257.000 30.667 L 250.167 30.667 250.167 26.917 L 250.167 23.167 246.747 23.167 L 243.327 23.167 243.372 19.375 L 243.417 15.583 246.792 15.538 L 250.167 15.493 250.167 11.747 L 250.167 8.000 260.333 8.000 L 270.500 8.000 270.500 11.833 M270.609 32.443 C 270.549 33.419,270.500 35.107,270.500 36.193 L 270.500 38.167 267.167 38.167 L 263.833 38.167 263.833 42.000 L 263.833 45.833 253.583 45.833 L 243.333 45.833 243.333 42.000 L 243.333 38.167 253.500 38.167 L 263.667 38.167 263.667 34.511 L 263.667 30.854 264.208 30.787 C 264.506 30.750,266.093 30.708,267.734 30.693 L 270.717 30.667 270.609 32.443 M172.627 57.125 L 172.670 64.667 179.418 64.667 L 186.167 64.667 186.167 57.170 L 186.167 49.673 186.542 49.581 C 186.748 49.530,188.304 49.510,190.000 49.536 L 193.083 49.583 193.126 68.458 L 193.168 87.333 189.667 87.333 L 186.167 87.333 186.167 79.833 L 186.167 72.333 179.417 72.333 L 172.667 72.333 172.667 79.833 L 172.667 87.333 169.250 87.333 L 165.833 87.333 165.833 68.528 C 165.833 58.185,165.885 49.671,165.948 49.608 C 166.011 49.545,167.530 49.513,169.323 49.538 L 172.583 49.583 172.627 57.125 M220.795 53.375 L 220.840 57.167 220.045 57.185 C 218.733 57.215,215.657 57.171,211.292 57.060 L 207.167 56.955 207.167 53.339 C 207.167 51.350,207.218 49.671,207.280 49.609 C 207.342 49.547,210.398 49.516,214.071 49.540 L 220.750 49.583 220.795 53.375 M256.628 53.375 L 256.673 57.167 260.090 57.167 L 263.506 57.167 263.461 60.958 L 263.417 64.750 259.958 64.795 L 256.500 64.840 256.500 61.087 L 256.500 57.333 249.750 57.333 L 243.000 57.333 243.000 68.574 L 243.000 79.814 248.125 79.782 C 257.163 79.726,256.482 79.378,256.622 84.125 L 256.717 87.333 249.859 87.333 L 243.000 87.333 243.000 83.587 L 243.000 79.840 239.542 79.795 L 236.083 79.750 236.083 68.500 L 236.083 57.250 239.542 57.205 L 243.000 57.160 243.000 53.441 C 243.000 51.396,243.051 49.671,243.113 49.609 C 243.175 49.547,246.231 49.516,249.905 49.540 L 256.583 49.583 256.628 53.375 M277.333 57.028 C 277.379 61.122,277.454 64.508,277.500 64.553 C 277.546 64.597,279.065 64.659,280.875 64.691 L 284.167 64.750 284.167 60.958 L 284.167 57.167 287.580 57.167 L 290.994 57.167 291.039 53.375 L 291.083 49.583 294.417 49.583 L 297.750 49.583 297.795 53.458 L 297.839 57.333 294.420 57.333 L 291.000 57.333 291.000 61.083 L 291.000 64.833 287.667 64.833 L 284.333 64.833 284.333 68.479 L 284.333 72.125 284.854 72.229 C 285.141 72.286,286.690 72.333,288.296 72.333 L 291.218 72.333 291.112 74.299 C 291.054 75.379,290.920 77.023,290.815 77.951 L 290.623 79.639 289.103 79.735 C 288.267 79.788,286.833 79.851,285.917 79.874 L 284.250 79.917 284.205 76.125 L 284.160 72.333 280.747 72.333 L 277.333 72.333 277.333 79.833 L 277.333 87.333 273.917 87.333 L 270.500 87.333 270.500 68.528 C 270.500 58.185,270.552 49.671,270.615 49.608 C 270.678 49.545,272.196 49.513,273.990 49.538 L 277.250 49.583 277.333 57.028 M326.917 53.417 L 326.917 57.250 320.125 57.294 L 313.333 57.337 313.333 61.000 L 313.333 64.663 320.125 64.706 L 326.917 64.750 326.917 68.500 L 326.917 72.250 320.125 72.294 L 313.333 72.337 313.333 76.085 L 313.333 79.833 320.167 79.833 L 327.000 79.833 327.000 83.583 L 327.000 87.333 316.667 87.333 L 306.333 87.333 306.333 68.514 C 306.333 53.615,306.377 49.677,306.542 49.610 C 306.656 49.563,311.287 49.538,316.833 49.554 L 326.917 49.583 326.917 53.417 M355.566 49.764 C 355.621 49.909,355.667 51.634,355.667 53.597 L 355.667 57.167 358.989 57.167 L 362.312 57.167 362.364 58.958 C 362.393 59.944,362.394 61.667,362.366 62.788 L 362.314 64.826 358.969 64.872 L 355.623 64.917 355.631 72.333 L 355.639 79.750 358.975 79.795 L 362.311 79.840 362.364 81.545 C 362.393 82.483,362.394 84.169,362.365 85.292 L 362.314 87.333 358.907 87.333 L 355.500 87.333 355.500 83.583 L 355.500 79.833 352.192 79.833 L 348.885 79.833 348.776 77.708 C 348.717 76.540,348.668 74.852,348.667 73.958 L 348.667 72.333 345.333 72.333 L 342.000 72.333 342.000 76.458 C 341.999 78.727,341.950 82.102,341.890 83.958 L 341.780 87.333 338.474 87.333 L 335.167 87.333 335.167 68.417 L 335.167 49.500 345.316 49.500 C 354.416 49.500,355.475 49.527,355.566 49.764 M396.795 53.458 L 396.839 57.333 386.586 57.333 L 376.333 57.333 376.333 61.000 L 376.333 64.667 383.167 64.667 L 390.000 64.667 390.000 68.515 L 390.000 72.363 393.417 72.306 L 396.834 72.250 396.833 76.146 L 396.833 80.043 394.958 79.935 C 393.927 79.876,392.470 79.783,391.721 79.729 L 390.359 79.629 390.258 78.856 C 390.039 77.192,389.842 74.693,389.838 73.542 L 389.833 72.333 383.083 72.333 L 376.333 72.333 376.333 68.583 L 376.333 64.833 372.917 64.833 L 369.500 64.833 369.500 61.000 L 369.500 57.167 372.917 57.167 L 376.333 57.167 376.333 53.431 C 376.333 50.598,376.384 49.674,376.542 49.610 C 376.656 49.563,381.250 49.538,386.750 49.554 L 396.750 49.583 396.795 53.458 M116.500 67.417 C 116.500 75.346,116.455 81.833,116.401 81.833 C 116.346 81.833,115.296 81.109,114.068 80.223 L 111.833 78.613 111.833 70.667 C 111.833 60.669,111.684 61.425,114.783 55.714 C 115.590 54.228,116.306 53.009,116.375 53.006 C 116.444 53.003,116.500 59.487,116.500 67.417 M207.167 60.917 L 207.167 64.667 212.892 64.667 C 216.041 64.667,219.077 64.715,219.639 64.773 L 220.660 64.880 220.705 61.065 L 220.750 57.250 224.167 57.250 L 227.583 57.250 227.626 72.292 L 227.668 87.333 224.168 87.333 L 220.667 87.333 220.667 79.833 L 220.667 72.333 213.917 72.333 L 207.167 72.333 207.167 79.833 L 207.167 87.333 203.667 87.333 L 200.167 87.333 200.167 72.250 L 200.167 57.167 203.667 57.167 L 207.167 57.167 207.167 60.917 M341.890 59.208 C 341.950 60.240,341.999 61.890,341.999 62.875 L 342.000 64.667 348.750 64.667 L 355.500 64.667 355.500 61.000 L 355.500 57.333 348.641 57.333 L 341.782 57.333 341.890 59.208 M67.881 73.875 C 69.466 76.583,70.001 77.814,70.196 79.202 C 70.371 80.444,70.232 86.969,70.024 87.283 C 69.917 87.444,67.246 88.167,66.756 88.167 C 66.529 88.167,66.500 87.242,66.500 80.083 C 66.500 75.637,66.564 72.000,66.642 72.000 C 66.720 72.000,67.278 72.844,67.881 73.875 M263.417 76.083 L 263.417 79.917 260.727 79.858 C 256.366 79.762,256.712 80.134,256.554 75.379 L 256.453 72.341 259.601 72.289 C 261.333 72.260,262.900 72.240,263.083 72.243 C 263.407 72.250,263.417 72.363,263.417 76.083 M297.833 83.417 L 297.833 87.333 294.333 87.333 L 290.833 87.333 290.833 86.958 C 290.831 85.725,291.218 80.396,291.316 80.291 C 291.438 80.162,296.095 79.551,297.208 79.518 L 297.833 79.500 297.833 83.417 M388.151 79.987 C 389.970 80.198,389.739 79.540,390.099 85.542 L 390.206 87.333 379.853 87.333 L 369.500 87.333 369.500 83.587 L 369.500 79.840 373.042 79.780 C 378.336 79.690,386.561 79.803,388.151 79.987 " stroke="none" fill="none" fill-rule="evenodd"></path><path id="path2" d="M5.082 48.583 C 5.082 75.350,5.101 86.275,5.125 72.862 C 5.149 59.448,5.149 37.548,5.125 24.195 C 5.101 10.842,5.082 21.817,5.082 48.583 M15.909 6.250 C 15.909 9.733,15.931 11.182,15.958 9.469 C 15.985 7.757,15.985 4.907,15.958 3.136 C 15.931 1.365,15.909 2.767,15.909 6.250 M38.076 7.000 C 38.076 10.896,38.098 12.490,38.125 10.542 C 38.151 8.594,38.151 5.406,38.125 3.458 C 38.098 1.510,38.076 3.104,38.076 7.000 M116.411 8.917 C 116.411 13.867,116.432 15.868,116.458 13.363 C 116.484 10.859,116.484 6.809,116.458 4.363 C 116.432 1.918,116.411 3.967,116.411 8.917 M119.915 41.500 C 119.915 64.371,119.935 73.727,119.958 62.292 C 119.982 50.856,119.982 32.144,119.958 20.708 C 119.935 9.273,119.915 18.629,119.915 41.500 M128.082 42.417 C 128.082 65.792,128.101 75.329,128.125 63.612 C 128.149 51.894,128.149 32.769,128.125 21.112 C 128.101 9.454,128.082 19.042,128.082 42.417 M66.565 2.667 C 66.565 3.904,66.592 4.410,66.624 3.792 C 66.656 3.173,66.656 2.160,66.624 1.542 C 66.592 0.923,66.565 1.429,66.565 2.667 M93.214 2.917 C 93.216 3.375,93.248 3.543,93.286 3.289 C 93.325 3.036,93.324 2.661,93.284 2.456 C 93.244 2.251,93.213 2.458,93.214 2.917 M111.875 2.750 C 111.877 3.117,111.911 3.247,111.951 3.040 C 111.991 2.832,111.990 2.532,111.948 2.373 C 111.906 2.214,111.874 2.383,111.875 2.750 M98.364 4.782 C 98.347 6.174,98.390 7.349,98.458 7.391 C 98.527 7.434,98.564 6.670,98.540 5.693 C 98.462 2.534,98.396 2.191,98.364 4.782 M90.705 3.167 C 90.705 3.487,90.740 3.619,90.782 3.458 C 90.823 3.298,90.823 3.035,90.782 2.875 C 90.740 2.715,90.705 2.846,90.705 3.167 M105.717 5.000 C 105.717 5.504,105.748 5.710,105.786 5.458 C 105.824 5.206,105.824 4.794,105.786 4.542 C 105.748 4.290,105.717 4.496,105.717 5.000 M91.500 5.719 C 91.500 5.748,91.744 5.991,92.042 6.260 L 92.583 6.750 92.094 6.208 C 91.638 5.703,91.500 5.590,91.500 5.719 M141.545 7.500 C 141.545 7.912,141.578 8.081,141.618 7.875 C 141.657 7.669,141.657 7.331,141.618 7.125 C 141.578 6.919,141.545 7.087,141.545 7.500 M66.714 7.750 C 66.716 8.208,66.748 8.376,66.786 8.123 C 66.825 7.869,66.824 7.494,66.784 7.289 C 66.744 7.084,66.713 7.292,66.714 7.750 M132.578 17.417 C 132.578 23.100,132.599 25.449,132.625 22.637 C 132.650 19.825,132.651 15.175,132.625 12.304 C 132.599 9.432,132.578 11.733,132.578 17.417 M111.725 9.000 C 111.725 9.779,111.754 10.098,111.789 9.708 C 111.824 9.319,111.824 8.681,111.789 8.292 C 111.754 7.902,111.725 8.221,111.725 9.000 M165.833 26.913 L 165.833 45.833 169.249 45.833 L 172.664 45.833 172.707 34.542 L 172.750 23.250 176.016 23.205 L 179.281 23.160 179.390 25.538 C 179.450 26.846,179.499 28.537,179.499 29.295 L 179.500 30.674 182.875 30.628 L 186.250 30.583 186.295 26.875 L 186.340 23.167 182.923 23.167 L 179.506 23.167 179.461 19.375 L 179.417 15.583 176.045 15.538 L 172.673 15.493 172.628 11.788 L 172.583 8.083 169.208 8.038 L 165.833 7.993 165.833 26.913 M193.111 8.111 C 193.050 8.172,193.000 13.272,193.000 19.444 L 193.000 30.667 190.608 30.667 C 189.292 30.667,187.755 30.715,187.191 30.774 L 186.167 30.881 186.167 32.149 C 186.168 32.846,186.217 34.485,186.277 35.792 L 186.385 38.167 189.693 38.167 L 193.000 38.167 193.000 41.892 L 193.000 45.617 194.526 45.725 C 195.365 45.785,196.902 45.833,197.942 45.833 L 199.833 45.833 199.833 26.917 L 199.833 8.000 196.528 8.000 C 194.710 8.000,193.172 8.050,193.111 8.111 M207.448 8.108 C 207.385 8.171,207.333 14.960,207.333 23.194 L 207.333 38.167 210.833 38.167 L 214.333 38.167 214.333 42.002 L 214.333 45.837 221.125 45.794 L 227.917 45.750 227.961 41.958 L 228.006 38.167 231.336 38.167 L 234.667 38.167 234.667 23.080 L 234.667 7.993 231.292 8.038 L 227.917 8.083 227.874 23.125 L 227.832 38.167 221.083 38.167 L 214.335 38.167 214.293 23.125 L 214.250 8.083 210.906 8.038 C 209.067 8.014,207.511 8.045,207.448 8.108 M250.167 11.747 L 250.167 15.493 246.792 15.538 L 243.417 15.583 243.372 19.375 L 243.327 23.167 246.747 23.167 L 250.167 23.167 250.167 26.917 L 250.167 30.667 257.000 30.667 L 263.833 30.667 263.833 26.917 L 263.833 23.167 257.000 23.167 L 250.167 23.167 250.167 19.417 L 250.167 15.667 260.333 15.667 L 270.500 15.667 270.500 11.833 L 270.500 8.000 260.333 8.000 L 250.167 8.000 250.167 11.747 M60.379 8.833 C 60.379 9.246,60.411 9.415,60.451 9.208 C 60.491 9.002,60.491 8.665,60.451 8.458 C 60.411 8.252,60.379 8.421,60.379 8.833 M151.000 50.450 C 150.954 72.102,150.973 89.760,151.042 89.691 C 151.111 89.622,151.148 71.907,151.125 50.325 L 151.083 11.083 151.000 50.450 M158.576 18.333 C 158.576 21.954,158.598 23.435,158.625 21.625 C 158.652 19.815,158.652 16.852,158.625 15.042 C 158.598 13.231,158.576 14.713,158.576 18.333 M141.582 43.833 C 141.582 60.838,141.601 67.794,141.625 59.292 C 141.649 50.790,141.649 36.877,141.625 28.375 C 141.601 19.873,141.582 26.829,141.582 43.833 M51.749 50.667 C 51.749 71.338,51.768 79.794,51.792 69.458 C 51.815 59.123,51.815 42.210,51.792 31.875 C 51.768 21.540,51.749 29.996,51.749 50.667 M137.069 17.167 C 137.069 18.862,137.094 19.556,137.124 18.708 C 137.154 17.860,137.154 16.473,137.124 15.625 C 137.094 14.777,137.069 15.471,137.069 17.167 M0.910 30.500 C 0.910 34.854,0.932 36.635,0.958 34.458 C 0.985 32.281,0.985 28.719,0.958 26.542 C 0.932 24.365,0.910 26.146,0.910 30.500 M9.576 29.833 C 9.576 33.362,9.598 34.806,9.625 33.042 C 9.652 31.277,9.652 28.390,9.625 26.625 C 9.598 24.860,9.576 26.304,9.576 29.833 M114.045 24.500 C 114.045 24.912,114.078 25.081,114.118 24.875 C 114.157 24.669,114.157 24.331,114.118 24.125 C 114.078 23.919,114.045 24.087,114.045 24.500 M113.872 27.167 C 113.872 27.488,113.906 27.619,113.948 27.458 C 113.990 27.298,113.990 27.035,113.948 26.875 C 113.906 26.715,113.872 26.846,113.872 27.167 M264.208 30.787 L 263.667 30.854 263.667 34.511 L 263.667 38.167 253.500 38.167 L 243.333 38.167 243.333 42.000 L 243.333 45.833 253.583 45.833 L 263.833 45.833 263.833 42.000 L 263.833 38.167 267.167 38.167 L 270.500 38.167 270.500 36.193 C 270.500 35.107,270.549 33.419,270.609 32.443 L 270.717 30.667 267.734 30.693 C 266.093 30.708,264.506 30.750,264.208 30.787 M116.400 35.250 C 116.400 36.625,116.426 37.165,116.457 36.451 C 116.489 35.736,116.488 34.611,116.457 33.951 C 116.425 33.290,116.400 33.875,116.400 35.250 M113.039 34.167 C 113.039 34.487,113.073 34.619,113.115 34.458 C 113.157 34.298,113.157 34.035,113.115 33.875 C 113.073 33.715,113.039 33.846,113.039 34.167 M29.580 52.417 C 29.580 60.758,29.600 64.146,29.625 59.946 C 29.650 55.745,29.650 48.920,29.625 44.779 C 29.600 40.638,29.580 44.075,29.580 52.417 M15.745 48.583 C 15.745 54.633,15.766 57.084,15.792 54.030 C 15.817 50.975,15.817 46.025,15.792 43.030 C 15.766 40.034,15.745 42.533,15.745 48.583 M116.224 43.250 C 116.224 43.983,116.254 44.263,116.289 43.871 C 116.324 43.479,116.324 42.879,116.288 42.537 C 116.252 42.196,116.223 42.517,116.224 43.250 M167.634 49.624 C 168.578 49.654,170.078 49.654,170.967 49.624 C 171.856 49.594,171.083 49.570,169.250 49.570 C 167.417 49.570,166.689 49.595,167.634 49.624 M188.134 49.624 C 189.078 49.654,190.578 49.654,191.467 49.624 C 192.356 49.594,191.583 49.570,189.750 49.570 C 187.917 49.570,187.189 49.595,188.134 49.624 M213.955 49.624 L 220.660 49.670 220.710 53.419 L 220.760 57.167 220.755 53.375 L 220.750 49.583 214.000 49.580 L 207.250 49.578 213.955 49.624 M246.458 49.625 C 248.315 49.652,251.352 49.652,253.208 49.625 C 255.065 49.598,253.546 49.576,249.833 49.576 C 246.121 49.576,244.602 49.598,246.458 49.625 M272.301 49.624 C 273.245 49.654,274.745 49.654,275.634 49.624 C 276.523 49.594,275.750 49.570,273.917 49.570 C 272.083 49.570,271.356 49.595,272.301 49.624 M292.801 49.624 C 293.745 49.654,295.245 49.654,296.134 49.624 C 297.023 49.594,296.250 49.570,294.417 49.570 C 292.583 49.570,291.856 49.595,292.801 49.624 M316.705 49.624 L 326.827 49.669 326.877 53.418 L 326.926 57.167 326.921 53.375 L 326.917 49.583 316.750 49.581 L 306.583 49.579 316.705 49.624 M340.208 49.625 C 343.027 49.651,347.640 49.651,350.458 49.625 C 353.277 49.599,350.971 49.578,345.333 49.578 C 339.696 49.578,337.390 49.599,340.208 49.625 M381.625 49.625 C 384.398 49.651,388.935 49.651,391.708 49.625 C 394.481 49.599,392.212 49.578,386.667 49.578 C 381.121 49.578,378.852 49.599,381.625 49.625 M186.243 57.167 C 186.243 61.337,186.265 63.044,186.292 60.958 C 186.318 58.873,186.318 55.460,186.292 53.375 C 186.265 51.290,186.243 52.996,186.243 57.167 M355.571 53.500 C 355.571 55.563,355.595 56.406,355.624 55.375 C 355.654 54.344,355.654 52.656,355.624 51.625 C 355.595 50.594,355.571 51.438,355.571 53.500 M132.576 61.167 C 132.576 65.154,132.598 66.785,132.625 64.792 C 132.651 62.798,132.651 59.535,132.625 57.542 C 132.598 55.548,132.576 57.179,132.576 61.167 M46.078 65.750 C 46.078 70.792,46.099 72.878,46.125 70.387 C 46.151 67.895,46.151 63.770,46.125 61.220 C 46.099 58.670,46.078 60.708,46.078 65.750 M212.708 57.121 C 213.052 57.157,213.615 57.157,213.958 57.121 C 214.302 57.085,214.021 57.056,213.333 57.056 C 212.646 57.056,212.365 57.085,212.708 57.121 M200.247 72.250 C 200.247 80.592,200.267 83.980,200.292 79.779 C 200.316 75.578,200.316 68.753,200.292 64.612 C 200.267 60.471,200.247 63.908,200.247 72.250 M207.071 60.917 C 207.072 63.025,207.095 63.865,207.125 62.782 C 207.154 61.700,207.154 59.975,207.124 58.949 C 207.095 57.923,207.071 58.808,207.071 60.917 M220.738 61.083 C 220.738 63.192,220.762 64.031,220.791 62.949 C 220.820 61.867,220.820 60.142,220.791 59.116 C 220.762 58.090,220.738 58.975,220.738 61.083 M227.580 72.333 C 227.580 80.629,227.600 84.023,227.625 79.875 C 227.650 75.727,227.650 68.940,227.625 64.792 C 227.600 60.644,227.580 64.037,227.580 72.333 M236.079 68.500 C 236.079 74.688,236.100 77.219,236.125 74.125 C 236.150 71.031,236.150 65.969,236.125 62.875 C 236.100 59.781,236.079 62.313,236.079 68.500 M313.231 59.333 C 313.231 60.479,313.258 60.948,313.290 60.375 C 313.323 59.802,313.323 58.865,313.290 58.292 C 313.258 57.719,313.231 58.188,313.231 59.333 M0.910 66.667 C 0.910 71.021,0.932 72.802,0.958 70.625 C 0.985 68.448,0.985 64.885,0.958 62.708 C 0.932 60.531,0.910 62.313,0.910 66.667 M341.898 61.833 C 341.898 62.979,341.924 63.448,341.957 62.875 C 341.989 62.302,341.989 61.365,341.957 60.792 C 341.924 60.219,341.898 60.688,341.898 61.833 M9.576 68.083 C 9.576 72.025,9.598 73.614,9.625 71.614 C 9.651 69.614,9.651 66.389,9.625 64.447 C 9.598 62.505,9.576 64.142,9.576 68.083 M137.069 65.750 C 137.070 67.492,137.094 68.182,137.124 67.283 C 137.154 66.384,137.154 64.959,137.124 64.116 C 137.094 63.273,137.069 64.008,137.069 65.750 M277.387 63.667 C 277.387 64.262,277.417 64.506,277.454 64.208 C 277.491 63.910,277.491 63.423,277.454 63.125 C 277.417 62.827,277.387 63.071,277.387 63.667 M213.042 64.791 C 214.210 64.820,216.123 64.820,217.292 64.791 C 218.460 64.763,217.504 64.739,215.167 64.739 C 212.829 64.739,211.873 64.763,213.042 64.791 M281.792 64.787 C 282.090 64.824,282.577 64.824,282.875 64.787 C 283.173 64.750,282.929 64.720,282.333 64.720 C 281.737 64.720,281.494 64.750,281.792 64.787 M326.872 68.451 L 326.833 72.152 325.625 72.210 L 324.417 72.267 325.630 72.300 C 327.131 72.341,327.017 72.681,326.958 68.329 L 326.910 64.750 326.872 68.451 M116.295 73.417 C 116.270 78.046,116.306 81.833,116.375 81.833 C 116.444 81.833,116.500 78.046,116.500 73.417 C 116.500 68.787,116.464 65.000,116.420 65.000 C 116.376 65.000,116.319 68.788,116.295 73.417 M355.575 72.500 C 355.575 75.754,355.597 77.085,355.625 75.458 C 355.652 73.831,355.652 71.169,355.625 69.542 C 355.597 67.915,355.575 69.246,355.575 72.500 M284.203 69.865 L 284.167 72.147 283.542 72.212 C 283.198 72.248,283.404 72.280,284.000 72.283 C 284.596 72.286,284.917 72.256,284.713 72.216 C 284.355 72.147,284.341 72.069,284.291 69.864 L 284.240 67.583 284.203 69.865 M66.537 74.958 L 66.575 77.917 66.625 75.034 C 66.661 72.944,66.726 72.184,66.863 72.268 C 66.978 72.340,67.005 72.310,66.933 72.192 C 66.585 71.631,66.503 72.210,66.537 74.958 M184.957 72.286 L 186.163 72.348 186.209 79.882 L 186.255 87.417 186.253 79.833 L 186.250 72.250 185.000 72.237 L 183.750 72.225 184.957 72.286 M218.875 72.288 C 219.219 72.324,219.781 72.324,220.125 72.288 C 220.469 72.252,220.188 72.223,219.500 72.223 C 218.813 72.223,218.531 72.252,218.875 72.288 M388.129 72.289 C 388.521 72.324,389.121 72.324,389.463 72.288 C 389.804 72.252,389.483 72.223,388.750 72.224 C 388.017 72.224,387.737 72.254,388.129 72.289 M60.408 78.083 C 60.408 81.292,60.431 82.581,60.458 80.948 C 60.485 79.315,60.485 76.690,60.458 75.114 C 60.431 73.539,60.408 74.875,60.408 78.083 M207.077 79.833 C 207.077 84.004,207.098 85.710,207.125 83.625 C 207.151 81.540,207.151 78.127,207.125 76.042 C 207.098 73.956,207.077 75.662,207.077 79.833 M348.733 74.667 C 348.733 75.996,348.759 76.540,348.790 75.875 C 348.822 75.210,348.822 74.123,348.790 73.458 C 348.759 72.794,348.733 73.337,348.733 74.667 M341.907 77.833 C 341.907 80.629,341.930 81.773,341.958 80.375 C 341.986 78.977,341.986 76.690,341.958 75.292 C 341.930 73.894,341.907 75.037,341.907 77.833 M313.231 77.667 C 313.231 78.813,313.258 79.281,313.290 78.708 C 313.323 78.135,313.323 77.198,313.290 76.625 C 313.258 76.052,313.231 76.521,313.231 77.667 M284.227 78.333 C 284.227 79.204,284.255 79.560,284.289 79.125 C 284.324 78.690,284.324 77.977,284.289 77.542 C 284.255 77.106,284.227 77.462,284.227 78.333 M158.576 86.500 C 158.576 90.487,158.598 92.119,158.625 90.125 C 158.651 88.131,158.651 84.869,158.625 82.875 C 158.598 80.881,158.576 82.512,158.576 86.500 M296.708 79.615 C 296.869 79.657,297.131 79.657,297.292 79.615 C 297.452 79.573,297.321 79.539,297.000 79.539 C 296.679 79.539,296.548 79.573,296.708 79.615 M246.875 79.788 C 247.219 79.824,247.781 79.824,248.125 79.788 C 248.469 79.752,248.188 79.723,247.500 79.723 C 246.813 79.723,246.531 79.752,246.875 79.788 M252.208 79.782 C 252.369 79.823,252.631 79.823,252.792 79.782 C 252.952 79.740,252.821 79.705,252.500 79.705 C 252.179 79.705,252.048 79.740,252.208 79.782 M262.917 79.833 L 262.417 79.961 262.865 79.980 C 263.112 79.991,263.360 79.925,263.417 79.833 C 263.473 79.742,263.496 79.676,263.468 79.686 C 263.440 79.697,263.192 79.763,262.917 79.833 M376.955 79.787 C 377.250 79.824,377.775 79.824,378.121 79.788 C 378.467 79.752,378.225 79.722,377.583 79.721 C 376.942 79.721,376.659 79.750,376.955 79.787 M383.125 79.787 C 383.423 79.824,383.910 79.824,384.208 79.787 C 384.506 79.750,384.262 79.720,383.667 79.720 C 383.071 79.720,382.827 79.750,383.125 79.787 M284.875 79.948 C 285.035 79.990,285.298 79.990,285.458 79.948 C 285.619 79.906,285.487 79.872,285.167 79.872 C 284.846 79.872,284.715 79.906,284.875 79.948 M326.905 83.583 C 326.905 85.692,326.929 86.531,326.958 85.449 C 326.987 84.367,326.987 82.642,326.958 81.616 C 326.928 80.590,326.905 81.475,326.905 83.583 M395.127 79.951 C 395.334 79.991,395.634 79.990,395.794 79.948 C 395.953 79.906,395.783 79.874,395.417 79.875 C 395.050 79.877,394.920 79.911,395.127 79.951 M29.739 84.500 C 29.739 86.837,29.763 87.794,29.791 86.625 C 29.820 85.456,29.820 83.544,29.791 82.375 C 29.763 81.206,29.739 82.162,29.739 84.500 M66.565 86.083 C 66.565 87.275,66.592 87.741,66.624 87.118 C 66.656 86.496,66.656 85.521,66.623 84.951 C 66.591 84.382,66.564 84.892,66.565 86.083 " stroke="none" fill="#fc941d" fill-rule="evenodd"></path></g></svg>